<svg xmlns="http://www.w3.org/2000/svg" version="1.1" xmlns:xlink="http://www.w3.org/1999/xlink" xmlns:svgjs="http://svgjs.dev/svgjs" width="1000" height="750" viewBox="0 0 1000 750"><rect width="1000" height="750" fill="#c56e33"></rect><g transform="matrix(0.5251798561151079,0,0,0.5251798561151079,237.94292598197285,83.23643777734088)"><svg viewBox="0 0 222 247" data-background-color="#c56e33" preserveAspectRatio="xMidYMid meet" height="1112" width="1000" xmlns="http://www.w3.org/2000/svg" xmlns:xlink="http://www.w3.org/1999/xlink"><g id="tight-bounds" transform="matrix(1,0,0,1,-0.22524391633021423,-0.10000022432055289)"><svg viewBox="0 0 222.45048788827145 247.2" height="247.2" width="222.45048788827145"><g><svg viewBox="0 0 395.52 439.52496992997146" height="247.2" width="222.45048788827145"><g transform="matrix(1,0,0,1,0,293.4428910586632)"><svg viewBox="0 0 395.52 146.08207887130828" height="146.08207887130828" width="395.52"><g id="textblocktransform"><svg viewBox="0 0 395.52 146.08207887130828" height="146.08207887130828" width="395.52" id="textblock"><g><svg viewBox="0 0 395.52 83.04364875491481" height="83.04364875491481" width="395.52"><g transform="matrix(1,0,0,1,0,0)"><svg width="395.52" viewBox="2.700000047683716 -39.599998474121094 190.74000549316406 40.04999923706055" height="83.04364875491481" data-palette-color="#ffffff"><path d="M19.45-0.4Q14.8-0.4 11-2.23 7.2-4.05 4.95-7.83 2.7-11.6 2.7-17.15L2.7-17.15Q2.7-22.4 4.75-26.55 6.8-30.7 10.55-33.02 14.3-35.35 19.2-35.35L19.2-35.35Q24.15-35.35 28.2-32.98 32.25-30.6 34.58-26.4 36.9-22.2 36.9-16.9L36.9-16.9Q36.9-11.55 34.5-7.83 32.1-4.1 28.13-2.25 24.15-0.4 19.45-0.4L19.45-0.4ZM19.7-3.95Q23.05-3.95 26.1-5.33 29.15-6.7 31.1-9.68 33.05-12.65 33.05-17.1L33.05-17.1Q33.05-21.3 31.3-24.65 29.55-28 26.43-29.9 23.3-31.8 19.4-31.8L19.4-31.8Q15.6-31.8 12.68-29.98 9.75-28.15 8.13-24.9 6.5-21.65 6.5-17.4L6.5-17.4Q6.5-12.65 8.45-9.63 10.4-6.6 13.4-5.28 16.4-3.95 19.7-3.95L19.7-3.95ZM45.6-0.45Q44.75-0.45 44.22-0.9 43.7-1.35 43.7-2.2L43.7-2.2 43.4-37.8Q43.4-38.65 43.95-39.13 44.5-39.6 45.4-39.6L45.4-39.6Q46.25-39.6 46.75-39.13 47.25-38.65 47.25-37.85L47.25-37.85 47.5-2.2Q47.5-1.35 46.97-0.9 46.45-0.45 45.6-0.45L45.6-0.45ZM78.95-3.25Q79.65-3.15 80-2.85 80.35-2.55 80.35-1.75L80.35-1.75Q80.35-1 79.97-0.55 79.6-0.1 78.95-0.1L78.95-0.1Q76.9-0.1 75.92-0.75 74.95-1.4 74.25-3.2L74.25-3.2Q72 0.45 66.25 0.45L66.25 0.45Q62.2 0.45 59.7-1.35 57.2-3.15 56.12-5.93 55.05-8.7 55.05-11.8L55.05-11.8Q55.05-15.15 56.4-18.1 57.75-21.05 60.37-22.85 63-24.65 66.65-24.65L66.65-24.65Q69.15-24.65 71-23.65 72.85-22.65 73.9-20.85L73.9-20.85 74.1-22.5Q74.2-24.35 75.8-24.35L75.8-24.35Q76.8-24.35 77.32-23.88 77.85-23.4 77.75-22.75L77.75-22.75 77.6-21.5Q77.25-19.4 77.1-17.15L77.1-17.15Q76.95-15.25 76.95-12.05L76.95-12.05 76.95-8.6Q76.95-6.45 77.07-5.43 77.2-4.4 77.6-3.85 78-3.3 78.95-3.25L78.95-3.25ZM73.15-8.65Q73.2-11 73.2-14.7L73.2-14.7Q73.2-17.15 72.15-18.68 71.1-20.2 69.6-20.85 68.1-21.5 66.75-21.5L66.75-21.5Q64.1-21.5 62.32-20 60.55-18.5 59.72-16.25 58.9-14 58.9-11.8L58.9-11.8Q58.9-8.3 60.62-5.53 62.35-2.75 66.3-2.75L66.3-2.75Q69.25-2.75 71.17-4.28 73.1-5.8 73.15-8.65L73.15-8.65ZM95.64-0.1Q94.04-0.1 92.52-2.33 90.99-4.55 89.74-8.45L89.74-8.45Q88.54-12.1 87.77-16.5 86.99-20.9 86.99-23.6L86.99-23.6Q86.99-24.75 87.34-25.3 87.69-25.85 88.89-25.85L88.89-25.85Q90.64-25.85 90.74-24.3L90.74-24.3Q91.04-20.15 91.42-17.63 91.79-15.1 92.89-10.95L92.89-10.95Q93.79-7.6 94.49-5.98 95.19-4.35 95.99-4.35L95.99-4.35Q96.59-4.35 97.82-8.5 99.04-12.65 100.69-19.25L100.69-19.25Q100.99-20.3 101.44-20.8 101.89-21.3 102.74-21.3L102.74-21.3Q103.59-21.3 103.99-20.83 104.39-20.35 104.79-19.25L104.79-19.25Q105.34-17.7 106.64-13.4L106.64-13.4Q107.99-8.9 108.87-6.73 109.74-4.55 110.59-4.55L110.59-4.55Q111.29-4.55 111.87-6.23 112.44-7.9 113.19-11.3L113.19-11.3Q114.19-15.8 114.49-18 114.79-20.2 114.99-24.15L114.99-24.15Q115.04-24.9 115.39-25.35 115.74-25.8 116.84-25.8L116.84-25.8Q118.04-25.8 118.39-25.2 118.74-24.6 118.74-23.3L118.74-23.3Q118.74-20.8 118.09-16.57 117.44-12.35 116.49-8.8L116.49-8.8Q115.39-4.7 113.99-2.4 112.59-0.1 110.99-0.1L110.99-0.1Q109.44-0.1 107.87-2.2 106.29-4.3 104.97-7.88 103.64-11.45 102.79-15.85L102.79-15.85Q101.84-9.1 99.92-4.6 97.99-0.1 95.64-0.1L95.64-0.1ZM148.89-3.25Q149.59-3.15 149.94-2.85 150.29-2.55 150.29-1.75L150.29-1.75Q150.29-1 149.92-0.55 149.54-0.1 148.89-0.1L148.89-0.1Q146.84-0.1 145.87-0.75 144.89-1.4 144.19-3.2L144.19-3.2Q141.94 0.45 136.19 0.45L136.19 0.45Q132.14 0.45 129.64-1.35 127.14-3.15 126.07-5.93 124.99-8.7 124.99-11.8L124.99-11.8Q124.99-15.15 126.34-18.1 127.69-21.05 130.32-22.85 132.94-24.65 136.59-24.65L136.59-24.65Q139.09-24.65 140.94-23.65 142.79-22.65 143.84-20.85L143.84-20.85 144.04-22.5Q144.14-24.35 145.74-24.35L145.74-24.35Q146.74-24.35 147.27-23.88 147.79-23.4 147.69-22.75L147.69-22.75 147.54-21.5Q147.19-19.4 147.04-17.15L147.04-17.15Q146.89-15.25 146.89-12.05L146.89-12.05 146.89-8.6Q146.89-6.45 147.02-5.43 147.14-4.4 147.54-3.85 147.94-3.3 148.89-3.25L148.89-3.25ZM143.09-8.65Q143.14-11 143.14-14.7L143.14-14.7Q143.14-17.15 142.09-18.68 141.04-20.2 139.54-20.85 138.04-21.5 136.69-21.5L136.69-21.5Q134.04-21.5 132.27-20 130.49-18.5 129.67-16.25 128.84-14 128.84-11.8L128.84-11.8Q128.84-8.3 130.57-5.53 132.29-2.75 136.24-2.75L136.24-2.75Q139.19-2.75 141.12-4.28 143.04-5.8 143.09-8.65L143.09-8.65ZM159.24-0.45Q158.39-0.45 157.86-0.9 157.34-1.35 157.34-2.2L157.34-2.2 157.04-37.8Q157.04-38.65 157.59-39.13 158.14-39.6 159.04-39.6L159.04-39.6Q159.89-39.6 160.39-39.13 160.89-38.65 160.89-37.85L160.89-37.85 161.14-2.2Q161.14-1.35 160.61-0.9 160.09-0.45 159.24-0.45L159.24-0.45ZM181.79 0.2Q177.69 0.2 174.71-1.58 171.74-3.35 170.21-6.28 168.69-9.2 168.69-12.65L168.69-12.65Q168.69-16.2 170.29-19.18 171.89-22.15 174.84-23.9 177.79-25.65 181.64-25.65L181.64-25.65Q185.04-25.65 187.74-24.28 190.44-22.9 191.94-20.45 193.44-18 193.44-14.85L193.44-14.85Q193.44-13.35 193.09-12.73 192.74-12.1 191.34-12.05L191.34-12.05 172.29-11.65Q172.29-9.75 173.44-7.75 174.59-5.75 176.71-4.4 178.84-3.05 181.64-3.05L181.64-3.05Q183.74-3.05 185.24-3.68 186.74-4.3 187.59-5.1 188.44-5.9 189.64-7.35L189.64-7.35Q189.99-7.8 190.74-7.8L190.74-7.8Q191.39-7.8 191.96-7.3 192.54-6.8 192.54-6.15L192.54-6.15Q192.54-5.65 192.14-5.1L192.14-5.1Q190.54-2.9 188.26-1.35 185.99 0.2 181.79 0.2L181.79 0.2ZM172.29-14.65L189.69-15.1Q190.19-15.1 190.19-15.8L190.19-15.8Q190.19-18.8 187.79-20.68 185.39-22.55 181.74-22.55L181.74-22.55Q178.99-22.55 176.84-21.15 174.69-19.75 173.49-17.85 172.29-15.95 172.29-14.65L172.29-14.65Z" opacity="1" transform="matrix(1,0,0,1,0,0)" fill="#ffffff" class="wordmark-text-0" data-fill-palette-color="primary" id="text-0"></path></svg></g></svg></g><g transform="matrix(1,0,0,1,0,102.64826117838008)"><svg viewBox="0 0 395.52 43.4338176929282" height="43.4338176929282" width="395.52"><g transform="matrix(1,0,0,1,0,0)"><svg width="395.52" viewBox="7.079999923706055 -36.88999938964844 453.94000244140625 49.849998474121094" height="43.4338176929282" data-palette-color="#ffffff"><path d="M27.17-31.03L11.23-31.03 11.23-19.7 25.71-19.7 25.71-16.04 11.23-16.04 11.23 0 7.08 0 7.08-34.69 27.17-34.69 27.17-31.03ZM37.67-24.12L38.43-22.31Q41.48-24.58 45.16-24.58L45.16-24.58Q47.7-24.58 49.78-23.63L49.78-23.63 48.56-20.43Q46.65-21.17 44.6-21.17L44.6-21.17Q41.55-21.17 38.86-19.48L38.86-19.48 38.86 0 34.86 0 34.86-24.12 37.67-24.12ZM64.94-24.58L64.94-24.58Q69.94-24.58 73.18-21.39 76.41-18.19 76.41-12.55L76.41-12.55Q76.41-6.57 73.1-3.04 69.79 0.49 64.55 0.49L64.55 0.49Q59.54 0.49 56.37-2.82 53.19-6.13 53.19-11.79L53.19-11.79Q53.19-17.63 56.43-21.11 59.66-24.58 64.94-24.58ZM64.59-21.17L64.59-21.17Q61.59-21.17 59.35-18.85 57.1-16.53 57.1-12.48L57.1-12.48Q57.1-8.45 59.3-5.69 61.49-2.93 64.99-2.93L64.99-2.93Q68.21-2.93 70.36-5.37 72.5-7.81 72.5-11.74L72.5-11.74Q72.5-13.99 71.81-15.82 71.11-17.65 69.98-18.8 68.84-19.95 67.45-20.56 66.06-21.17 64.59-21.17ZM83.98 0L83.98-24.12 86.78-24.12 87.66-22.07Q92.33-24.61 96.16-24.61L96.16-24.61Q98.14-24.61 99.6-23.99 101.07-23.36 101.87-22.42 102.68-21.48 103.15-20.06 103.63-18.63 103.76-17.33 103.9-16.04 103.9-14.38L103.9-14.38 103.9 0 99.89 0 99.89-14.65Q99.89-21 94.43-21L94.43-21Q91.59-21 87.98-19.12L87.98-19.12 87.98 0 83.98 0ZM124.94-3.15L125.5-0.42Q121.96 0.49 119.99 0.49 118.01 0.49 116.64-0.15 115.27-0.78 114.57-1.95 113.86-3.13 113.55-4.48 113.25-5.83 113.25-7.59L113.25-7.59 113.25-20.97 110-20.97 110-24.12 113.25-24.12 113.25-31.03 117.25-31.03 117.25-24.12 124.6-24.12 124.6-20.97 117.25-20.97 117.25-7.64Q117.25-2.64 121.21-2.64L121.21-2.64Q121.91-2.64 124.94-3.15L124.94-3.15ZM141.98-24.58L141.98-24.58Q143.74-24.58 145.14-24.16 146.55-23.73 147.47-23.07 148.4-22.41 149.07-21.35 149.74-20.29 150.1-19.3 150.45-18.31 150.65-16.92 150.84-15.53 150.89-14.5 150.94-13.48 150.94-12.08L150.94-12.08 150.94-10.18 134.36-10.18Q134.36-8.86 134.96-7.56 135.56-6.25 136.65-5.16 137.73-4.08 139.5-3.39 141.27-2.71 143.42-2.71L143.42-2.71Q145.96-2.71 148.91-3.59L148.91-3.59 149.62-0.85Q145.69 0.49 141.91 0.49L141.91 0.49Q139.25 0.49 137.18-0.22 135.12-0.93 133.86-2.06 132.6-3.2 131.8-4.79 130.99-6.37 130.69-7.95 130.38-9.52 130.38-11.28L130.38-11.28Q130.38-13.99 131.04-16.24 131.7-18.48 132.82-20.01 133.95-21.53 135.45-22.58 136.95-23.63 138.6-24.11 140.25-24.58 141.98-24.58ZM141.13-21.12L141.13-21.12Q138.98-21.12 137.43-19.93 135.88-18.75 135.17-16.99 134.46-15.23 134.46-13.21L134.46-13.21 147.06-13.21Q147.06-21.12 141.13-21.12ZM158.51 0L158.51-24.12 161.31-24.12 162.19-22.07Q166.86-24.61 170.69-24.61L170.69-24.61Q172.67-24.61 174.13-23.99 175.6-23.36 176.4-22.42 177.21-21.48 177.68-20.06 178.16-18.63 178.29-17.33 178.43-16.04 178.43-14.38L178.43-14.38 178.43 0 174.42 0 174.42-14.65Q174.42-21 168.95-21L168.95-21Q166.12-21 162.51-19.12L162.51-19.12 162.51 0 158.51 0ZM185.99-11.65L185.99-11.65Q185.99-14.77 186.87-17.26 187.75-19.75 189.29-21.34 190.83-22.92 192.89-23.77 194.95-24.61 197.35-24.61L197.35-24.61Q200.23-24.61 203.18-23.32L203.18-23.32 203.18-36.89 207.18-36.89 207.18 0 204.4 0 203.74-1.51Q200.35 0.49 196.66 0.49L196.66 0.49Q195.15 0.49 193.71 0.12 192.27-0.24 190.85-1.15 189.44-2.05 188.37-3.41 187.31-4.76 186.65-6.88 185.99-9.01 185.99-11.65ZM197.98-2.81L197.98-2.81Q200.64-2.81 203.18-4.17L203.18-4.17 203.18-20.29Q200.57-21.46 197.93-21.46L197.93-21.46Q196.81-21.46 195.76-21.22 194.71-20.97 193.61-20.34 192.51-19.7 191.72-18.7 190.92-17.7 190.41-16.05 189.9-14.4 189.9-12.28L189.9-12.28Q189.9-10.08 190.44-8.36 190.97-6.64 191.8-5.62 192.63-4.59 193.76-3.93 194.88-3.27 195.91-3.04 196.93-2.81 197.98-2.81ZM243.46-31.03L236.72-31.03 236.72-3.66 241.77-3.66Q242.87-3.66 243.59-3.69 244.31-3.71 245.55-3.83 246.78-3.96 247.67-4.2 248.56-4.44 249.7-4.91 250.83-5.37 251.71-6.03 252.59-6.69 253.47-7.71 254.35-8.74 255.01-10.03L255.01-10.03Q256.62-13.13 256.62-17.58L256.62-17.58Q256.62-20.65 255.73-23.13 254.84-25.61 253.36-27.16 251.88-28.71 250.21-29.61 248.54-30.52 246.71-30.83L246.71-30.83Q245.63-31.03 243.46-31.03L243.46-31.03ZM232.57-34.69L243.31-34.69Q246.68-34.69 249.44-34.02 252.2-33.35 254.07-32.13 255.93-30.91 257.28-29.37 258.62-27.83 259.36-25.94 260.11-24.05 260.45-22.22 260.79-20.39 260.79-18.41L260.79-18.41Q260.79-16.14 260.45-14.04 260.11-11.94 259.27-9.77 258.42-7.59 257.12-5.87 255.81-4.15 253.74-2.77 251.66-1.39 249.03-0.73L249.03-0.73Q247.66-0.39 245.97-0.22 244.29-0.05 243.19-0.02 242.09 0 240.09 0L240.09 0 232.57 0 232.57-34.69ZM279.47-24.58L279.47-24.58Q281.23-24.58 282.63-24.16 284.03-23.73 284.96-23.07 285.89-22.41 286.56-21.35 287.23-20.29 287.58-19.3 287.94-18.31 288.13-16.92 288.33-15.53 288.38-14.5 288.43-13.48 288.43-12.08L288.43-12.08 288.43-10.18 271.85-10.18Q271.85-8.86 272.45-7.56 273.05-6.25 274.13-5.16 275.22-4.08 276.99-3.39 278.76-2.71 280.91-2.71L280.91-2.71Q283.45-2.71 286.4-3.59L286.4-3.59 287.11-0.85Q283.18 0.49 279.39 0.49L279.39 0.49Q276.73 0.49 274.67-0.22 272.61-0.93 271.35-2.06 270.09-3.2 269.29-4.79 268.48-6.37 268.18-7.95 267.87-9.52 267.87-11.28L267.87-11.28Q267.87-13.99 268.53-16.24 269.19-18.48 270.31-20.01 271.43-21.53 272.94-22.58 274.44-23.63 276.09-24.11 277.73-24.58 279.47-24.58ZM278.61-21.12L278.61-21.12Q276.46-21.12 274.91-19.93 273.36-18.75 272.66-16.99 271.95-15.23 271.95-13.21L271.95-13.21 284.55-13.21Q284.55-21.12 278.61-21.12ZM310.1-24.12L314.25-24.12 305.78 0 301.63 0 293.19-24.12 297.58-24.12 303.83-3.98 310.1-24.12ZM330.61-24.58L330.61-24.58Q332.37-24.58 333.77-24.16 335.18-23.73 336.1-23.07 337.03-22.41 337.7-21.35 338.37-20.29 338.73-19.3 339.08-18.31 339.28-16.92 339.47-15.53 339.52-14.5 339.57-13.48 339.57-12.08L339.57-12.08 339.57-10.18 322.99-10.18Q322.99-8.86 323.59-7.56 324.19-6.25 325.28-5.16 326.36-4.08 328.13-3.39 329.9-2.71 332.05-2.71L332.05-2.71Q334.59-2.71 337.54-3.59L337.54-3.59 338.25-0.85Q334.32 0.49 330.54 0.49L330.54 0.49Q327.88 0.49 325.81-0.22 323.75-0.93 322.49-2.06 321.23-3.2 320.43-4.79 319.62-6.37 319.32-7.95 319.01-9.52 319.01-11.28L319.01-11.28Q319.01-13.99 319.67-16.24 320.33-18.48 321.45-20.01 322.58-21.53 324.08-22.58 325.58-23.63 327.23-24.11 328.88-24.58 330.61-24.58ZM329.76-21.12L329.76-21.12Q327.61-21.12 326.06-19.93 324.51-18.75 323.8-16.99 323.09-15.23 323.09-13.21L323.09-13.21 335.69-13.21Q335.69-21.12 329.76-21.12ZM347.62 0L347.62-36.89 351.63-36.89 351.63 0 347.62 0ZM371.42-24.58L371.42-24.58Q376.43-24.58 379.66-21.39 382.9-18.19 382.9-12.55L382.9-12.55Q382.9-6.57 379.59-3.04 376.28 0.49 371.03 0.49L371.03 0.49Q366.03 0.49 362.86-2.82 359.68-6.13 359.68-11.79L359.68-11.79Q359.68-17.63 362.92-21.11 366.15-24.58 371.42-24.58ZM371.08-21.17L371.08-21.17Q368.08-21.17 365.83-18.85 363.59-16.53 363.59-12.48L363.59-12.48Q363.59-8.45 365.79-5.69 367.98-2.93 371.47-2.93L371.47-2.93Q374.7-2.93 376.84-5.37 378.99-7.81 378.99-11.74L378.99-11.74Q378.99-13.99 378.3-15.82 377.6-17.65 376.47-18.8 375.33-19.95 373.94-20.56 372.55-21.17 371.08-21.17ZM401.01-24.58L401.01-24.58Q402.5-24.58 403.92-24.23 405.33-23.88 406.76-22.99 408.19-22.09 409.25-20.74 410.31-19.38 410.99-17.21 411.66-15.04 411.66-12.33L411.66-12.33Q411.66-6.4 408.5-2.95 405.33 0.49 400.3 0.49L400.3 0.49Q397.42 0.49 394.47-0.81L394.47-0.81 394.47 12.96 390.47 12.96 390.47-24.12 393.25-24.12 393.91-22.58Q397.33-24.58 401.01-24.58ZM399.65-21.26L399.65-21.26Q396.98-21.26 394.47-19.92L394.47-19.92 394.47-3.83Q397.08-2.66 399.72-2.66L399.72-2.66Q400.84-2.66 401.89-2.91 402.94-3.15 404.03-3.8 405.11-4.44 405.92-5.42 406.73-6.4 407.24-8.01 407.75-9.62 407.75-11.65L407.75-11.65Q407.75-13.94 407.21-15.7 406.68-17.46 405.85-18.48 405.02-19.51 403.89-20.17 402.77-20.83 401.74-21.04 400.72-21.26 399.65-21.26ZM429.57-24.58L429.57-24.58Q431.33-24.58 432.74-24.16 434.14-23.73 435.07-23.07 436-22.41 436.67-21.35 437.34-20.29 437.69-19.3 438.05-18.31 438.24-16.92 438.44-15.53 438.49-14.5 438.53-13.48 438.53-12.08L438.53-12.08 438.53-10.18 421.96-10.18Q421.96-8.86 422.56-7.56 423.15-6.25 424.24-5.16 425.33-4.08 427.1-3.39 428.87-2.71 431.01-2.71L431.01-2.71Q433.55-2.71 436.51-3.59L436.51-3.59 437.22-0.85Q433.29 0.49 429.5 0.49L429.5 0.49Q426.84 0.49 424.78-0.22 422.71-0.93 421.46-2.06 420.2-3.2 419.39-4.79 418.59-6.37 418.28-7.95 417.98-9.52 417.98-11.28L417.98-11.28Q417.98-13.99 418.64-16.24 419.3-18.48 420.42-20.01 421.54-21.53 423.04-22.58 424.54-23.63 426.19-24.11 427.84-24.58 429.57-24.58ZM428.72-21.12L428.72-21.12Q426.57-21.12 425.02-19.93 423.47-18.75 422.76-16.99 422.05-15.23 422.05-13.21L422.05-13.21 434.65-13.21Q434.65-21.12 428.72-21.12ZM448.91-24.12L449.66-22.31Q452.72-24.58 456.4-24.58L456.4-24.58Q458.94-24.58 461.02-23.63L461.02-23.63 459.8-20.43Q457.89-21.17 455.84-21.17L455.84-21.17Q452.79-21.17 450.1-19.48L450.1-19.48 450.1 0 446.1 0 446.1-24.12 448.91-24.12Z" opacity="1" transform="matrix(1,0,0,1,0,0)" fill="#ffffff" class="slogan-text-1" data-fill-palette-color="secondary" id="text-1"></path></svg></g></svg></g></svg></g></svg></g><g transform="matrix(1,0,0,1,75.54432,0)"><svg viewBox="0 0 244.43135999999998 244.43135999999998" height="244.43135999999998" width="244.43135999999998"><g><svg viewBox="0 0 244.43135999999998 244.43135999999998" height="244.43135999999998" width="244.43135999999998"><g transform="matrix(1,0,0,1,64.60265593644992,64.60265593644992)"><svg viewBox="0 0 115.22604812710014 115.22604812710014" height="115.22604812710014" width="115.22604812710014"><g><svg xmlns="http://www.w3.org/2000/svg" xmlns:xlink="http://www.w3.org/1999/xlink" version="1.1" x="0" y="0" viewBox="5 5 90 90" enable-background="new 0 0 100 100" xml:space="preserve" height="115.22604812710014" width="115.22604812710014" class="icon-s-0" data-fill-palette-color="accent" id="s-0"><path fill="#ffffff" d="M95 52c0-12.871-5.692-24.431-14.682-32.318C72.431 10.692 60.871 5 48 5 24.29 5 5 24.29 5 48c0 12.868 5.69 24.426 14.677 32.313C27.564 89.306 39.126 95 52 95c0.084 0 0.166-0.006 0.25-0.006S52.416 95 52.5 95C75.972 95 95 75.972 95 52.5c0-0.084-0.006-0.166-0.006-0.25S95 52.084 95 52zM21.828 73.371c-4.245-5.978-6.77-13.259-6.822-21.121 0.135-20.511 16.732-37.109 37.244-37.244 7.862 0.052 15.144 2.577 21.121 6.822C80.224 28.473 84.5 37.758 84.5 48c0 20.126-16.374 36.5-36.5 36.5C37.758 84.5 28.473 80.224 21.828 73.371zM6 48C6 24.841 24.841 6 48 6c9.858 0 18.926 3.422 26.1 9.13C67.637 11.242 60.076 9 52 9 28.29 9 9 28.29 9 52c0 8.074 2.241 15.633 6.127 22.095C9.421 66.923 6 57.856 6 48zM52 89c-10.08 0-19.227-4.055-25.905-10.615C32.269 82.854 39.838 85.5 48 85.5c20.678 0 37.5-16.822 37.5-37.5 0-8.162-2.646-15.731-7.115-21.905C84.945 32.773 89 41.92 89 52 89 72.402 72.402 89 52 89z" data-fill-palette-color="accent"></path></svg></g></svg></g><g><path d="M45.003 80.119c-1.609 3.393-3.735 6.157-6.378 8.293-2.646 2.142-5.736 3.38-9.269 3.714-3.527 0.337-7.314-0.455-11.364-2.375v0c-3.826-1.815-6.899-4.186-9.218-7.113-2.317-2.934-3.674-6.171-4.073-9.712-0.395-3.532 0.254-7.084 1.949-10.656v0c1.712-3.609 4.131-6.481 7.259-8.614 3.134-2.131 6.635-3.318 10.504-3.561 3.863-0.246 7.729 0.549 11.598 2.384v0c3.9 1.85 6.791 4.294 8.671 7.332 1.89 3.035 2.821 6.324 2.794 9.867-0.025 3.537-0.849 7.018-2.473 10.441zM41.249 78.009c1.16-2.445 1.765-5.017 1.817-7.715 0.051-2.698-0.669-5.273-2.161-7.725-1.498-2.454-3.868-4.451-7.112-5.989v0c-3.064-1.453-6.12-2.118-9.167-1.993-3.05 0.116-5.809 0.984-8.276 2.604-2.461 1.623-4.365 3.856-5.713 6.697v0c-1.315 2.773-1.813 5.541-1.492 8.302 0.318 2.767 1.379 5.303 3.184 7.606 1.81 2.307 4.266 4.196 7.367 5.667v0c3.461 1.641 6.629 2.276 9.506 1.903 2.885-0.376 5.329-1.427 7.331-3.154 2.005-1.733 3.577-3.801 4.716-6.203z" fill="#ffffff" data-fill-palette-color="accent"></path><path d="M62.944 53.529c-0.486 0.483-1.008 0.745-1.566 0.787-0.557 0.042-1.077-0.181-1.56-0.667v0l-30.614-30.331c-0.483-0.486-0.704-1.02-0.663-1.602 0.046-0.586 0.326-1.135 0.842-1.646v0c0.486-0.483 1.008-0.73 1.565-0.743 0.557-0.012 1.063 0.21 1.517 0.667v0l30.614 30.418c0.483 0.486 0.704 1.006 0.663 1.558-0.046 0.557-0.312 1.077-0.798 1.559z" fill="#ffffff" data-fill-palette-color="accent"></path><path d="M97.843 30.438c0.548-0.174 1-0.215 1.357-0.122 0.36 0.099 0.681 0.439 0.963 1.018v0c0.263 0.542 0.338 1.043 0.226 1.501-0.113 0.458-0.406 0.803-0.881 1.033v0c-1.486 0.721-2.697 1.019-3.633 0.895-0.939-0.131-1.979-0.727-3.118-1.789v0c-0.347 3.443-2.608 6.177-6.781 8.203v0c-2.94 1.427-5.637 1.928-8.09 1.503-2.446-0.427-4.55-1.459-6.311-3.095-1.755-1.639-3.178-3.583-4.27-5.833v0c-1.178-2.429-1.798-4.954-1.858-7.575-0.058-2.615 0.549-5.037 1.819-7.268 1.271-2.231 3.231-3.99 5.882-5.276v0c1.812-0.879 3.567-1.281 5.264-1.206 1.694 0.069 3.24 0.572 4.638 1.508v0l-0.658-1.897c-0.578-1.38-0.288-2.351 0.872-2.913v0c0.727-0.353 1.366-0.45 1.915-0.29 0.55 0.16 0.903 0.495 1.059 1.005v0l0.493 1.44c0.486 1.645 1.073 3.31 1.761 4.995v0c0.559 1.435 1.402 3.314 2.53 5.638v0l1.822 3.754c0.757 1.56 1.362 2.69 1.816 3.391 0.448 0.704 0.914 1.186 1.399 1.446 0.487 0.251 1.082 0.229 1.784-0.066zM88.674 27.621c-0.792-1.725-1.838-3.929-3.139-6.61v0c-0.864-1.782-1.943-3.04-3.237-3.776-1.303-0.739-2.615-1.081-3.936-1.026-1.312 0.058-2.458 0.325-3.439 0.801v0c-1.929 0.936-3.275 2.259-4.037 3.969-0.759 1.716-1.041 3.536-0.846 5.46 0.195 1.924 0.679 3.684 1.454 5.28v0c1.232 2.54 2.963 4.514 5.193 5.923 2.229 1.409 4.78 1.416 7.653 0.022v0c2.139-1.038 3.641-2.448 4.504-4.231 0.855-1.786 0.798-3.723-0.17-5.812z" fill="#ffffff" data-fill-palette-color="accent"></path><path d="M118.847 33.221c-1.295-0.012-2.551-0.921-3.767-2.728-1.21-1.806-2.304-4.287-3.282-7.441v0c-0.946-2.955-1.714-6.21-2.304-9.765-0.59-3.562-0.876-6.432-0.855-8.61v0c0.009-0.925 0.155-1.609 0.44-2.052 0.285-0.443 0.914-0.66 1.887-0.65v0c1.411 0.013 2.149 0.647 2.213 1.901v0c0.216 3.353 0.465 6.048 0.747 8.086 0.282 2.045 0.854 4.743 1.713 8.094v0c0.701 2.713 1.327 4.726 1.876 6.04 0.556 1.321 1.157 1.984 1.801 1.99v0c0.48 0.004 1.232-1.664 2.256-5.005 1.018-3.341 2.216-7.667 3.595-12.978v0c0.255-0.847 0.565-1.471 0.932-1.872 0.367-0.401 0.893-0.598 1.578-0.592v0c0.685 0.006 1.187 0.203 1.505 0.59 0.318 0.387 0.635 1.027 0.949 1.92v0c0.434 1.251 1.159 3.618 2.174 7.102v0c1.056 3.641 1.928 6.342 2.618 8.103 0.689 1.761 1.377 2.644 2.062 2.65v0c0.569 0.005 1.089-0.665 1.56-2.01 0.478-1.345 1.035-3.389 1.671-6.131v0c0.835-3.624 1.385-6.322 1.647-8.094 0.256-1.772 0.481-4.251 0.676-7.435v0c0.04-0.609 0.205-1.094 0.496-1.455 0.284-0.361 0.868-0.537 1.752-0.528v0c0.973 0.009 1.598 0.258 1.874 0.747 0.276 0.489 0.41 1.258 0.4 2.306v0c-0.019 2.014-0.304 4.725-0.856 8.132-0.559 3.4-1.236 6.532-2.03 9.396v0c-0.914 3.294-1.946 5.864-3.093 7.71-1.148 1.846-2.369 2.763-3.664 2.752v0c-1.247-0.012-2.5-0.869-3.759-2.574-1.252-1.704-2.399-4.003-3.44-6.898-1.042-2.901-1.889-6.13-2.542-9.685v0c-0.818 5.44-2.021 9.968-3.61 13.585-1.589 3.617-3.329 5.416-5.22 5.399z" fill="#ffffff" data-fill-palette-color="accent"></path><path d="M179.853 47.28c0.465 0.338 0.766 0.678 0.903 1.021 0.134 0.349 0.051 0.809-0.249 1.378v0c-0.281 0.534-0.639 0.891-1.075 1.072-0.436 0.181-0.887 0.149-1.354-0.097v0c-1.461-0.769-2.42-1.567-2.875-2.394-0.452-0.834-0.588-2.024-0.409-3.572v0c-2.979 1.762-6.52 1.563-10.625-0.596v0c-2.892-1.522-4.895-3.396-6.008-5.622-1.107-2.223-1.523-4.529-1.25-6.917 0.279-2.385 1.001-4.684 2.165-6.897v0c1.257-2.389 2.922-4.385 4.996-5.988 2.071-1.597 4.382-2.545 6.932-2.846 2.55-0.3 5.129 0.236 7.736 1.608v0c1.783 0.938 3.147 2.112 4.092 3.523 0.949 1.405 1.461 2.948 1.537 4.629v0l1.137-1.655c0.768-1.284 1.722-1.626 2.863-1.025v0c0.716 0.376 1.172 0.833 1.369 1.37 0.197 0.537 0.137 1.02-0.182 1.449v0l-0.867 1.251c-1.037 1.367-2.029 2.827-2.977 4.38v0c-0.824 1.301-1.837 3.094-3.04 5.38v0l-1.942 3.693c-0.807 1.534-1.358 2.692-1.653 3.474-0.301 0.778-0.413 1.44-0.335 1.983 0.087 0.541 0.457 1.007 1.111 1.398zM176.684 38.227c0.92-1.661 2.074-3.81 3.461-6.448v0c0.922-1.752 1.295-3.368 1.12-4.845-0.178-1.487-0.68-2.746-1.508-3.778-0.825-1.022-1.719-1.787-2.683-2.294v0c-1.898-0.998-3.761-1.297-5.59-0.897-1.832 0.407-3.465 1.259-4.898 2.556-1.433 1.298-2.563 2.732-3.39 4.303v0c-1.314 2.498-1.877 5.063-1.689 7.693 0.188 2.63 1.695 4.689 4.52 6.175v0c2.104 1.107 4.13 1.48 6.078 1.118 1.945-0.371 3.471-1.565 4.579-3.583z" fill="#ffffff" data-fill-palette-color="accent"></path><path d="M188.37 60.426c-0.485-0.484-0.75-1.004-0.794-1.561-0.044-0.557 0.175-1.078 0.659-1.564v0l30.172-30.77c0.484-0.485 1.016-0.709 1.598-0.671 0.586 0.043 1.137 0.321 1.651 0.834v0c0.485 0.484 0.735 1.004 0.751 1.561 0.015 0.557-0.204 1.064-0.659 1.52v0l-30.26 30.77c-0.484 0.485-1.002 0.709-1.554 0.671-0.557-0.043-1.078-0.306-1.564-0.79z" fill="#ffffff" data-fill-palette-color="accent"></path><path d="M202.197 85.336c-1.466-2.959-2.092-5.834-1.876-8.625 0.225-2.788 1.119-5.257 2.683-7.409 1.574-2.148 3.607-3.84 6.099-5.075v0c2.566-1.272 5.21-1.863 7.931-1.773 2.727 0.086 5.252 0.885 7.575 2.395 2.32 1.504 4.171 3.649 5.552 6.436v0c1.217 2.456 1.812 4.906 1.784 7.352-0.027 2.445-0.656 4.649-1.885 6.611-1.236 1.966-2.993 3.513-5.271 4.642v0c-1.087 0.538-1.918 0.79-2.494 0.754-0.579-0.027-1.138-0.537-1.676-1.532v0l-10.668-20.442c-1.375 0.681-2.579 1.794-3.611 3.338-1.038 1.547-1.664 3.332-1.876 5.357-0.216 2.019 0.178 4.041 1.182 6.067v0c0.751 1.516 1.623 2.705 2.616 3.567 0.984 0.858 1.921 1.453 2.811 1.784 0.881 0.328 2.061 0.665 3.541 1.01v0c0.45 0.09 0.811 0.409 1.081 0.956v0c0.231 0.467 0.269 0.998 0.114 1.595-0.155 0.597-0.469 1.013-0.943 1.247v0c-0.362 0.179-0.813 0.219-1.351 0.119v0c-2.162-0.366-4.212-1.094-6.151-2.183-1.939-1.089-3.661-3.153-5.167-6.191zM213.202 67.06l9.838 18.627c0.179 0.362 0.524 0.417 1.033 0.165v0c2.167-1.074 3.499-2.816 3.995-5.225 0.496-2.41 0.091-4.931-1.214-7.566v0c-0.986-1.989-2.371-3.512-4.156-4.57-1.783-1.051-3.576-1.669-5.381-1.853-1.798-0.187-3.17-0.047-4.115 0.422z" fill="#ffffff" data-fill-palette-color="accent"></path><path d="M17.938 178.165c-1.676-3.482-2.513-6.972-2.51-10.472-0.006-3.503 0.999-6.778 3.015-9.824 2.01-3.044 5.092-5.566 9.246-7.567v0c3.932-1.893 7.821-2.819 11.667-2.777 3.842 0.036 7.31 1.039 10.404 3.01 3.093 1.971 5.523 4.789 7.288 8.456v0c1.783 3.704 2.516 7.5 2.198 11.387-0.318 3.887-1.63 7.458-3.934 10.712-2.304 3.254-5.441 5.836-9.41 7.747v0c-4.006 1.929-7.834 2.666-11.484 2.21-3.655-0.453-6.891-1.834-9.706-4.144-2.822-2.307-5.08-5.22-6.774-8.738zM22.063 176.521c1.21 2.513 2.879 4.66 5.006 6.441 2.125 1.791 4.653 2.881 7.587 3.271 2.93 0.384 6.059-0.225 9.386-1.827v0c3.142-1.513 5.655-3.529 7.537-6.047 1.876-2.516 2.961-5.285 3.254-8.309 0.299-3.026-0.254-6-1.66-8.919v0c-1.37-2.846-3.267-5.032-5.689-6.557-2.42-1.535-5.138-2.324-8.156-2.37-3.018-0.045-6.116 0.698-9.296 2.229v0c-3.556 1.712-6.114 3.845-7.676 6.399-1.564 2.548-2.299 5.183-2.204 7.906 0.085 2.719 0.722 5.314 1.911 7.783z" fill="#ffffff" data-fill-palette-color="accent"></path><path d="M41.938 212.921c-0.502-0.496-0.777-1.027-0.825-1.593-0.048-0.576 0.177-1.116 0.672-1.618v0l30.889-31.838c0.496-0.502 1.044-0.736 1.645-0.701 0.601 0.044 1.167 0.329 1.699 0.853v0c0.502 0.496 0.765 1.029 0.789 1.601 0.018 0.576-0.206 1.101-0.673 1.574v0l-30.976 31.838c-0.496 0.502-1.032 0.734-1.608 0.694-0.567-0.04-1.104-0.31-1.612-0.81z" fill="#ffffff" data-fill-palette-color="accent"></path><path d="M88.061 235.405c0.488 0.328 0.811 0.668 0.968 1.019 0.148 0.354 0.077 0.83-0.213 1.427v0c-0.272 0.561-0.628 0.94-1.067 1.139-0.448 0.201-0.916 0.184-1.402-0.053v0c-1.529-0.742-2.538-1.533-3.029-2.373-0.497-0.843-0.681-2.064-0.553-3.662v0c-3.002 1.916-6.651 1.832-10.948-0.254v0c-3.032-1.472-5.155-3.337-6.367-5.593-1.215-2.25-1.721-4.606-1.516-7.066 0.207-2.466 0.873-4.858 1.999-7.175v0c1.215-2.502 2.86-4.613 4.936-6.332 2.079-1.71 4.425-2.76 7.037-3.153 2.615-0.398 5.288 0.066 8.019 1.392v0c1.868 0.907 3.309 2.071 4.325 3.493 1.025 1.419 1.602 2.991 1.733 4.715v0l1.119-1.742c0.744-1.345 1.714-1.727 2.91-1.146v0c0.752 0.365 1.237 0.818 1.455 1.357 0.221 0.549 0.176 1.049-0.134 1.501v0l-0.845 1.315c-1.028 1.443-2.006 2.979-2.934 4.608v0c-0.799 1.364-1.779 3.241-2.94 5.632v0l-1.877 3.865c-0.781 1.609-1.311 2.818-1.589 3.627-0.282 0.815-0.37 1.5-0.266 2.053 0.095 0.557 0.488 1.025 1.179 1.407zM84.502 226.194c0.89-1.739 2.005-3.989 3.346-6.75v0c0.889-1.831 1.219-3.506 0.99-5.026-0.229-1.52-0.786-2.796-1.672-3.828-0.885-1.032-1.833-1.793-2.845-2.284v0c-1.979-0.961-3.903-1.202-5.772-0.723-1.876 0.475-3.531 1.405-4.964 2.788-1.433 1.383-2.548 2.895-3.344 4.535v0c-1.272 2.62-1.763 5.279-1.475 7.978 0.28 2.703 1.896 4.771 4.848 6.204v0c2.2 1.068 4.299 1.383 6.295 0.943 1.99-0.443 3.521-1.722 4.593-3.837z" fill="#ffffff" data-fill-palette-color="accent"></path><path d="M119.044 242.457c-1.329 0.013-2.636-0.9-3.922-2.738-1.278-1.838-2.454-4.372-3.526-7.603v0c-1.022-3.019-1.873-6.354-2.552-10.007-0.679-3.646-1.029-6.589-1.05-8.829v0c-0.009-0.959 0.128-1.666 0.411-2.121 0.283-0.462 0.925-0.697 1.926-0.707v0c1.452-0.014 2.226 0.623 2.32 1.91v0c0.286 3.444 0.594 6.213 0.922 8.306 0.335 2.094 0.975 4.859 1.919 8.297v0c0.773 2.781 1.458 4.844 2.054 6.188 0.595 1.344 1.225 2.013 1.889 2.007v0c0.5-0.005 1.241-1.739 2.222-5.202 0.988-3.456 2.141-7.931 3.459-13.425v0c0.238-0.872 0.544-1.519 0.916-1.941 0.366-0.415 0.902-0.625 1.608-0.632v0c0.706-0.007 1.228 0.184 1.568 0.571 0.333 0.394 0.671 1.045 1.015 1.953v0c0.465 1.284 1.255 3.705 2.372 7.265v0c1.159 3.73 2.111 6.496 2.855 8.298 0.743 1.795 1.468 2.689 2.173 2.682v0c0.582-0.006 1.107-0.706 1.573-2.101 0.459-1.395 0.987-3.507 1.584-6.337v0c0.793-3.749 1.308-6.536 1.544-8.36 0.229-1.832 0.41-4.389 0.544-7.673v0c0.035-0.624 0.198-1.126 0.489-1.505 0.284-0.373 0.885-0.563 1.803-0.572v0c0.993-0.009 1.64 0.234 1.939 0.732 0.292 0.491 0.444 1.277 0.455 2.359v0c0.02 2.076-0.224 4.87-0.732 8.384-0.508 3.52-1.141 6.757-1.901 9.71v0c-0.879 3.414-1.891 6.082-3.038 8.005-1.146 1.923-2.384 2.89-3.713 2.903v0c-1.281 0.012-2.584-0.849-3.91-2.584-1.325-1.728-2.554-4.073-3.685-7.036-1.131-2.956-2.067-6.26-2.808-9.912v0c-0.734 5.619-1.882 10.303-3.443 14.052-1.567 3.756-3.328 5.644-5.28 5.663z" fill="#ffffff" data-fill-palette-color="accent"></path><path d="M191.309 217.684c0.553-0.199 1.018-0.258 1.393-0.177 0.373 0.09 0.714 0.429 1.025 1.016v0c0.291 0.551 0.386 1.063 0.286 1.534-0.103 0.48-0.394 0.847-0.872 1.1v0c-1.503 0.793-2.738 1.139-3.706 1.037-0.974-0.098-2.067-0.672-3.279-1.721v0c-0.232 3.554-2.46 6.446-6.683 8.674v0c-2.981 1.573-5.74 2.18-8.277 1.822-2.533-0.352-4.731-1.339-6.593-2.959-1.865-1.627-3.399-3.579-4.601-5.858v0c-1.298-2.46-2.026-5.036-2.183-7.726-0.148-2.688 0.394-5.201 1.624-7.539 1.227-2.344 3.183-4.224 5.867-5.64v0c1.836-0.969 3.628-1.442 5.375-1.419 1.75 0.014 3.359 0.478 4.826 1.394v0l-0.741-1.933c-0.643-1.396-0.377-2.404 0.798-3.025v0c0.739-0.39 1.391-0.513 1.955-0.369 0.573 0.147 0.95 0.479 1.13 0.996v0l0.56 1.459c0.555 1.683 1.214 3.38 1.978 5.092v0c0.626 1.451 1.56 3.353 2.801 5.704v0l2.004 3.8c0.835 1.582 1.495 2.724 1.983 3.427 0.491 0.71 0.99 1.186 1.498 1.429 0.505 0.253 1.116 0.213 1.832-0.118zM181.777 215.102c-0.875-1.746-2.029-3.977-3.461-6.692v0c-0.95-1.8-2.105-3.057-3.466-3.772-1.361-0.715-2.719-1.021-4.075-0.918-1.355 0.103-2.53 0.417-3.524 0.942v0c-1.945 1.026-3.278 2.435-3.999 4.225-0.727 1.794-0.957 3.677-0.69 5.651 0.267 1.974 0.826 3.767 1.676 5.379v0c1.359 2.575 3.212 4.546 5.558 5.91 2.344 1.374 4.967 1.295 7.87-0.236v0c2.163-1.141 3.658-2.647 4.485-4.516 0.82-1.866 0.696-3.857-0.374-5.973z" fill="#ffffff" data-fill-palette-color="accent"></path><path d="M209.64 205.804c-0.501 0.497-1.035 0.766-1.602 0.807-0.577 0.041-1.113-0.189-1.611-0.69v0l-31.49-31.242c-0.497-0.501-0.725-1.052-0.683-1.653 0.051-0.601 0.342-1.164 0.872-1.69v0c0.501-0.497 1.038-0.754 1.609-0.77 0.577-0.012 1.099 0.218 1.567 0.69v0l31.49 31.33c0.497 0.501 0.722 1.04 0.676 1.616-0.046 0.567-0.322 1.101-0.828 1.602z" fill="#ffffff" data-fill-palette-color="accent"></path><path d="M230.506 173.967c-1.531 3.042-3.511 5.336-5.939 6.882-2.428 1.547-5.012 2.336-7.751 2.369-2.736 0.041-5.387-0.583-7.951-1.874v0c-2.632-1.325-4.753-3.137-6.365-5.437-1.612-2.3-2.516-4.868-2.713-7.706-0.194-2.844 0.428-5.695 1.867-8.553v0c1.269-2.521 2.919-4.525 4.948-6.012 2.033-1.493 4.238-2.338 6.617-2.538 2.375-0.193 4.732 0.3 7.069 1.477v0c1.108 0.558 1.829 1.082 2.165 1.573 0.336 0.491 0.26 1.266-0.227 2.325v0l-10.226 21.432c1.408 0.709 3.068 1.007 4.98 0.896 1.915-0.102 3.772-0.69 5.571-1.763 1.789-1.071 3.208-2.646 4.255-4.727v0c0.783-1.554 1.222-3.006 1.318-4.353 0.102-1.345 0.015-2.482-0.262-3.412-0.276-0.929-0.728-2.112-1.355-3.547v0c-0.207-0.426-0.171-0.918 0.109-1.475v0c0.243-0.483 0.66-0.845 1.249-1.086 0.586-0.234 1.118-0.231 1.595 0.009v0c0.373 0.188 0.691 0.532 0.953 1.032v0c1.03 2.007 1.695 4.144 1.995 6.413 0.3 2.268-0.334 4.96-1.902 8.075zM208.658 176.223l9.247-19.624c0.185-0.367 0.017-0.682-0.503-0.943v0c-2.221-1.118-4.478-1.139-6.77-0.06-2.286 1.081-4.11 2.975-5.471 5.679v0c-1.029 2.044-1.424 4.123-1.185 6.239 0.23 2.118 0.829 3.977 1.795 5.575 0.958 1.602 1.92 2.647 2.887 3.134z" fill="#ffffff" data-fill-palette-color="accent"></path><path d="M0 122.293c0-10.113 8.198-18.311 18.311-18.311 10.113 0 18.311 8.198 18.311 18.311 0 10.113-8.198 18.311-18.311 18.311-10.113 0-18.311-8.198-18.311-18.311z" fill="#ffffff" data-fill-palette-color="accent"></path><path d="M207.809 122.293c0-10.113 8.198-18.311 18.311-18.311 10.113 0 18.311 8.198 18.311 18.311 0 10.113-8.198 18.311-18.311 18.311-10.113 0-18.311-8.198-18.311-18.311z" fill="#ffffff" data-fill-palette-color="accent"></path></g></svg></g></svg></g><g></g></svg></g><defs></defs></svg><rect width="222.45048788827145" height="247.2" fill="none" stroke="none" visibility="hidden"></rect></g></svg></g></svg>